<svg width="256" height="256" viewBox="0 0 256 256" fill="none" xmlns="http://www.w3.org/2000/svg">
  <rect x="20" y="20" width="216" height="216" rx="56" fill="#0BA13C"/>
  <path
    d="M128 77V179M63 157.75V72.65C63 68.286 65.1935 64.2181 68.8403 61.9986C76.2469 57.4896 85.7066 55 96.0057 55C108.316 55 120.619 58.9651 128 66.0187C135.381 58.9651 147.684 55 159.994 55C170.293 55 179.753 57.4896 187.16 61.9986C190.807 64.2181 193 68.286 193 72.65V157.75C193 162.874 188.115 166.609 183.191 165.193C175.924 163.104 167.988 162 159.994 162C147.008 162 134.239 164.912 128 171C121.761 164.912 108.992 162 96.0057 162C88.0124 162 80.0764 163.104 72.8092 165.193C67.8846 166.609 63 162.874 63 157.75Z"
    stroke="white"
    stroke-width="18"
    stroke-linecap="round"
    stroke-linejoin="round"
  />
</svg>
